<svg width="20" height="20" viewBox="0 0 20 20" fill="none" xmlns="http://www.w3.org/2000/svg">
<path d="M19.5525 2.32041C19.5525 2.32041 18.0567 2.32041 17.0063 2.32041C16.6975 2.32041 16.479 2.2898 16.1113 2.61429C15.7248 2.9551 15.1807 3.47551 14.7038 3.94286C14.6975 3.4449 14.6071 2.96735 14.4496 2.52041C14.8445 2.12449 15.2311 1.73061 15.5126 1.43673C15.7521 1.18571 16.105 1.14286 16.4034 1.14286C17.5882 1.14286 19.5525 1.14286 19.5525 1.14286C19.8004 1.14286 20 1.34082 20 1.58367V1.87755C20 2.12245 19.8004 2.32041 19.5525 2.32041ZM14.7059 6.28571L19.4118 7.42857C19.5735 7.42857 19.7059 7.55714 19.7059 7.71429L17.3529 16.2857C17.2983 16.4755 17.1744 16.5633 17.0588 16.6143L14.1176 18.2857C13.9559 18.2857 13.8235 18.1571 13.8235 18L14.4118 6.57143C14.4118 6.41429 14.5441 6.28571 14.7059 6.28571ZM10 8C7.72689 8 5.88235 6.20816 5.88235 4C5.88235 1.7898 7.72689 0 10 0C12.2731 0 14.1176 1.79184 14.1176 4C14.1176 6.20816 12.2731 8 10 8ZM10 1.14286C8.37605 1.14286 7.05882 2.42245 7.05882 4C7.05882 5.57755 8.37605 6.85714 10 6.85714C11.6239 6.85714 12.9412 5.57755 12.9412 4C12.9412 2.42245 11.6239 1.14286 10 1.14286ZM5.88235 18.2857L2.94118 16.5714C2.79412 16.4939 2.69118 16.451 2.64706 16.2857L0.294118 8.28571C0.294118 8.12857 0.426471 8 0.588235 8L5.29412 6.28571C5.45588 6.28571 5.58824 6.41429 5.58824 6.57143L6.17647 18C6.17647 18.1571 6.04412 18.2857 5.88235 18.2857ZM3.82353 2.57143C3.46218 2.25714 3.2458 2.28571 2.94118 2.28571C1.90546 2.28571 0.441176 2.28571 0.441176 2.28571C0.197479 2.28571 0 2.09388 0 1.85714V1.57143C0 1.33469 0.197479 1.14286 0.441176 1.14286C0.441176 1.14286 2.36555 1.14286 3.53361 1.14286C3.82773 1.14286 4.17437 1.18367 4.41176 1.42857C4.70798 1.73265 5.12185 2.14898 5.53782 2.55714C5.38866 2.99388 5.30462 3.46122 5.29832 3.9449C4.80672 3.47347 4.22899 2.92245 3.82353 2.57143ZM9.55882 8.57143H10.4412C11.6597 8.57143 12.6471 9.53061 12.6471 10.7143V17.8571C12.6471 19.0408 11.6597 20 10.4412 20H9.55882C8.34034 20 7.35294 19.0408 7.35294 17.8571V10.7143C7.35294 9.53061 8.34034 8.57143 9.55882 8.57143Z" fill="#FAFAFA"/>
</svg>
